<?xml version="1.0" standalone="no"?>
<!DOCTYPE svg PUBLIC "-//W3C//DTD SVG 20010904//EN"
 "http://www.w3.org/TR/2001/REC-SVG-20010904/DTD/svg10.dtd">
<svg version="1.0" xmlns="http://www.w3.org/2000/svg"
 width="415.000000pt" height="512.000000pt" viewBox="0 0 415.000000 512.000000"
 preserveAspectRatio="xMidYMid meet">

<g transform="translate(0.000000,512.000000) scale(0.100000,-0.100000)"
fill="#000000" stroke="none">
<path d="M0 2560 l0 -2560 2075 0 2075 0 0 2560 0 2560 -2075 0 -2075 0 0
-2560z m3229 986 c9 -6 -2 -13 -36 -25 -77 -26 -246 -144 -337 -234 -129 -128
-212 -266 -260 -432 -35 -119 -53 -134 -22 -18 8 28 12 54 9 57 -2 2 1 14 7
26 9 17 9 21 -2 18 -7 -1 -29 9 -49 25 -20 15 -39 27 -43 27 -4 0 -14 7 -22
15 -29 29 -53 16 -94 -50 -25 -40 -37 -43 -73 -15 -14 11 -29 20 -35 20 -5 0
-17 9 -27 20 -10 11 -33 22 -51 26 -19 3 -34 10 -34 16 0 5 4 6 10 3 6 -3 7 1
4 10 -10 24 72 141 161 231 130 133 299 228 471 268 38 8 78 18 89 20 33 8
319 1 334 -8z m-1684 -19 c22 -9 74 -26 115 -37 95 -27 226 -97 313 -167 37
-29 67 -57 67 -60 0 -11 -143 -156 -181 -185 -51 -37 -122 -60 -204 -64 -49
-2 -62 -1 -45 5 14 5 21 9 16 10 -5 1 -3 7 3 14 6 8 8 17 5 20 -4 3 -2 20 4
36 7 19 7 33 1 36 -5 4 -6 12 -2 18 4 7 10 36 13 65 l6 54 -95 -4 c-81 -2 -96
-1 -95 12 1 8 10 61 20 118 13 74 22 102 33 102 8 0 11 3 8 7 -22 21 -243
-116 -354 -221 -132 -124 -210 -248 -279 -441 -30 -86 -34 -93 -29 -50 4 28 4
47 0 43 -4 -4 -17 -1 -29 7 -11 8 -27 15 -35 15 -8 0 -28 11 -45 24 -61 46
-70 44 -107 -29 -36 -68 -48 -76 -79 -47 -10 9 -41 25 -67 35 -26 10 -56 22
-65 27 -11 6 -18 5 -21 -3 -3 -7 -3 7 -2 31 6 77 127 273 227 368 146 139 326
233 517 269 100 19 329 14 386 -8z m2141 -207 c19 0 134 -123 178 -189 89
-135 115 -213 84 -253 -18 -22 -243 -158 -263 -158 -4 0 -5 7 -1 15 3 9 -3 19
-14 25 -11 6 -20 18 -20 26 0 9 -18 33 -40 55 -22 22 -40 47 -40 55 0 23 -43
10 -105 -31 -27 -18 -66 -40 -85 -49 -19 -8 -43 -21 -53 -28 -13 -10 -19 -10
-25 -1 -4 6 -20 15 -35 18 -22 6 -27 4 -27 -12 0 -10 5 -24 10 -29 8 -8 6 -15
-6 -25 -14 -11 -18 -11 -31 6 -25 35 -26 63 -4 100 20 34 20 35 1 35 -27 0
-90 58 -83 76 3 8 20 22 37 31 17 9 36 21 41 28 13 15 289 197 334 220 19 9
43 26 54 36 12 10 26 19 32 19 23 0 35 22 23 44 -11 20 -10 20 9 4 11 -10 24
-18 29 -18z m-521 -559 c3 -5 1 -12 -5 -16 -5 -3 -10 1 -10 9 0 18 6 21 15 7z
m-1072 -84 c75 -158 208 -324 331 -412 57 -40 181 -106 254 -135 18 -7 31 -14
29 -17 -7 -7 -150 50 -201 79 -55 33 -72 38 -69 21 2 -7 -4 -10 -13 -6 -8 3
-14 2 -12 -3 2 -5 0 -10 -5 -11 -4 -2 -21 -18 -38 -37 -34 -39 -30 -60 14 -88
12 -9 31 -34 41 -56 14 -30 22 -38 37 -35 24 7 24 -6 -2 -36 -22 -26 -21 -27
-65 37 -22 30 -28 28 -50 -15 -32 -64 -33 -65 -63 -47 -67 40 -177 237 -218
390 -22 84 -26 121 -27 244 -1 127 6 200 18 200 2 0 19 -33 39 -73z m-1495
-307 c58 -64 61 -70 22 -37 -24 21 -62 59 -83 84 -45 55 -72 104 -32 58 15
-16 57 -64 93 -105z m-225 -221 c12 -9 27 -17 32 -18 6 -1 24 -15 41 -32 17
-16 35 -29 41 -27 5 2 28 -13 51 -33 41 -36 41 -37 35 -88 -5 -48 -4 -55 20
-77 14 -13 29 -24 33 -24 3 0 19 -10 34 -22 15 -13 37 -30 49 -38 11 -8 21
-18 21 -23 0 -20 -106 -117 -159 -145 -64 -35 -157 -62 -210 -62 l-34 0 6 173
c4 94 8 242 8 327 1 85 4 144 6 131 3 -14 15 -32 26 -42z m3300 29 c76 -60
111 -191 74 -277 l-14 -33 -16 22 c-11 15 -16 18 -20 8 -3 -7 -6 -3 -6 10 -1
12 -6 22 -12 22 -5 0 -17 17 -26 37 -8 21 -27 48 -41 61 -25 24 -25 25 -13 91
15 79 18 91 27 91 3 0 24 -14 47 -32z"/>
<path d="M3135 2950 c-3 -5 -1 -10 4 -10 6 0 11 5 11 10 0 6 -2 10 -4 10 -3 0
-8 -4 -11 -10z"/>
</g>
</svg>
