<?xml version="1.0" standalone="yes"?>
<svg xmlns="http://www.w3.org/2000/svg" width="415" height="512">
<path style="fill:#030203; stroke:none;" d="M0 0L0 512L415 512L415 0L0 0z"/>
<path style="fill:#4675bf; stroke:none;" d="M294 155L294 156L315 156L294 155M127 156L127 157L141 157L127 156M287 156L287 157L293 157L287 156z"/>
<path style="fill:#baa3c7; stroke:none;" d="M236 184L236 185C240.081 187.521 245.872 193.453 251 192.784C257.493 191.937 264.552 182.135 270 178.544C285.898 168.064 303.501 159.054 323 159C317.293 154.609 307.858 155.989 301 156C278.377 156.036 250.159 165.571 236 184z"/>
<path style="fill:#4675bf; stroke:none;" d="M316 156L316 157L321 157L316 156M119 157L119 158L124 158L119 157z"/>
<path style="fill:#baa3c7; stroke:none;" d="M59 197L61 195L74 204L75 204C89.9082 183.241 127.182 154.396 155 161C149.967 156.284 140.569 157 134 157C113.314 157 92.9087 163.509 76 175.439C69.401 180.095 58.0575 187.983 59 197z"/>
<path style="fill:#4675bf; stroke:none;" d="M144 157L144 158L149 158L144 157M282 157L282 158L286 158L282 157M322 157L304 161.667L269 178.333L251.167 193L236 185L236 184L240 179C219.993 188.33 207.036 219.367 204 240L205 240L206 237C213.012 257.594 227.808 276.457 246 288.305C251.926 292.164 259.664 297.905 267 297C271.558 303.897 286.347 304.842 294 305L294 304C286.629 303.663 280.845 300.731 275.001 296.37C244.692 273.756 255.994 237.422 268 208L269 208L268 212L280 205L275 208L275 215C291.209 208.518 301.607 206.79 319 209L315 213L315 214L343 196L332 188C338.724 184.768 340.679 177.024 341 170L345 170L343 166C355.846 167.933 365.719 178.971 376 186C367.93 170.204 338.483 159.802 322 157M114 158L114 159L117 159L114 158M152.667 158.333L153.333 158.667L152.667 158.333M279.667 158.333L280.333 158.667L279.667 158.333M109 159L109 160L112 160L109 159M154 159L154 160L158 160L154 159M275.667 159.333L276.333 159.667L275.667 159.333M105 160L105 161L108 161L105 160M75 204L74 204C71.6073 200.071 63.4461 195.152 59 197L63 186C57.2678 190.123 53.1694 196.123 49.3449 202C43.1209 211.564 35.4468 225.167 36.108 237C37.3733 259.645 65.5382 285.133 84 295L85.2863 252L92 223L93 223L94 226C105.776 220.398 112.888 210.54 127 209.055C145.607 207.096 161.685 217.003 180 208.688C186.487 205.742 204.765 194.333 203.963 186.004C203.47 180.89 194.974 176.286 191 174L204 187L197 189L198 193C190.528 198.264 182.558 210.025 172.094 209.218C162.167 208.452 170.788 196.468 176 195L177 186L177 185C165.047 185 153.802 185.295 142 187.285C136.85 188.154 132.327 190.924 128 187L131 187L131 186L131 177L134 175L131 174L131 172L154 161C147.476 158.263 138.503 161.615 132 163.424C112.16 168.946 84.3112 184.757 75 204z"/>
<path style="fill:#c655b4; stroke:none;" d="M131 172L131 174L134 175L131 177L131 187L128 187L128 188C133.896 191.958 148.285 186.737 155 185L153 179L159 161C150.835 158.105 137.697 167.887 131 172z"/>
<path style="fill:#4675bf; stroke:none;" d="M159 160L159 161L173 165L173 164L159 160M271 160L271 161L274 161L271 160M102 161L102 162L105 162L102 161z"/>
<path style="fill:#baa3c7; stroke:none;" d="M157 161C156.984 166.855 157.366 174.725 153 179L155 185L177 185L177 186C174.242 188.411 175.033 191.722 176 195C170.708 195.819 161.924 206.177 170.344 209.306C180.056 212.916 192.346 198.653 198 193L197 189L199 191L204 187C197.026 172.353 172.136 163.04 157 161z"/>
<path style="fill:#c655b4; stroke:none;" d="M160.667 161.333L161.333 161.667L160.667 161.333z"/>
<path style="fill:#4675bf; stroke:none;" d="M266 162L266 163L271 162L266 162M99 162L99 163L102 163L99 162z"/>
<path style="fill:#c655b4; stroke:none;" d="M164 162L165 163L164 162z"/>
<path style="fill:#4675bf; stroke:none;" d="M96 163L96 164L99 164L96 163z"/>
<path style="fill:#c655b4; stroke:none;" d="M167 163L168 164L167 163z"/>
<path style="fill:#4675bf; stroke:none;" d="M261 164L261 165L266 164L261 164M94.6667 164.333L95.3333 164.667L94.6667 164.333M92.6667 165.333L93.3333 165.667L92.6667 165.333M174.667 165.333L175.333 165.667L174.667 165.333M259.667 165.333L260.333 165.667L259.667 165.333M90 166L91 167L90 166M176.667 166.333L177.333 166.667L176.667 166.333M257.667 166.333L258.333 166.667L257.667 166.333z"/>
<path style="fill:#c655b4; stroke:none;" d="M343 166L345 170L341 170C340.37 177.215 337.969 183.667 332 188C343.041 200.975 356.58 187.078 368 181L368 179C360.449 173.592 352.557 166.841 343 166z"/>
<path style="fill:#4675bf; stroke:none;" d="M88 167L89 168L88 167M178.667 167.333L179.333 167.667L178.667 167.333M254 169L257 167L254 169M86.6667 168.333L87.3333 168.667L86.6667 168.333M180.667 168.333L181.333 168.667L180.667 168.333M84.6667 169.333L85.3333 169.667L84.6667 169.333M182.667 169.333L183.333 169.667L182.667 169.333M252.667 169.333L253.333 169.667L252.667 169.333M81 172L84 170L81 172M184 170L185 171L184 170M249 172L252 170L249 172z"/>
<path style="fill:#baa3c7; stroke:none;" d="M130 171C113.628 181.067 95.007 198.939 92 219L93 219C96.521 206.23 106.203 194.484 115.285 185.17C119.311 181.041 128.482 176.536 130 171z"/>
<path style="fill:#4675bf; stroke:none;" d="M185.667 171.333L186.333 171.667L185.667 171.333M79.6667 172.333L80.3333 172.667L79.6667 172.333M187.667 172.333L188.333 172.667L187.667 172.333M246 174L249 172L246 174z"/>
<path style="fill:#baa3c7; stroke:none;" d="M296 172C281.096 182.716 267.205 197.932 262 216L263 216L281.039 188L296 172z"/>
<path style="fill:#4675bf; stroke:none;" d="M78 173L79 174L78 173M134 173L135 174L134 173M189 173L190 174L189 173M76.6667 174.333L77.3333 174.667L76.6667 174.333M242 177L246 174L242 177M75 175L76 176L75 175M72 178L75 176L72 178M241 177L242 178L241 177M71 178L72 179L71 178M240 178L241 179L240 178M70 179L71 180L70 179M63 186L70 180L63 186z"/>
<path style="fill:#baa3c7; stroke:none;" d="M313 215L313 216L325 211L332 227C328.451 226.193 326.096 225.777 324 229C327.369 229.905 334.109 235.102 334 229C346.488 231.325 354.199 215.746 365.995 215.133C377.968 214.51 377.727 240.843 392.772 225.671C402.335 216.026 385.766 196.279 379.13 189.09C376.459 186.195 372.393 180.895 368 181.133C363.24 181.39 357.107 186.555 353 188.861C339.098 196.667 326.685 206.892 313 215z"/>
<path style="fill:#c655b4; stroke:none;" d="M335.333 183.667L335.667 184.333L335.333 183.667M127 184L128 185L127 184z"/>
<path style="fill:#4675bf; stroke:none;" d="M377 187L378 188L377 187M378 188L379 189L378 188M379 189L380 190L379 189M380 190L381 191L380 190M381 191L382 192L381 191M382 192L383 193L382 192M383.333 193.667L383.667 194.333L383.333 193.667M384 195L385 196L384 195z"/>
<path style="fill:#030203; stroke:none;" d="M276 196L277 197L276 196z"/>
<path style="fill:#4675bf; stroke:none;" d="M385 196L386 197L385 196z"/>
<path style="fill:#030203; stroke:none;" d="M274 198L276 200L274 198z"/>
<path style="fill:#4675bf; stroke:none;" d="M386 198L387 199L386 198M387 199L389 202L387 199M170 204L175 200L170 204z"/>
<path style="fill:#030203; stroke:none;" d="M272 201L269 208L273 207L272 201z"/>
<path style="fill:#4675bf; stroke:none;" d="M389.333 202.667L389.667 203.333L389.333 202.667M390 204L392 207L390 204M271 205L270 207L272 207L271 205M392.333 207.667L392.667 208.333L392.333 207.667M273 208L274 209L273 208z"/>
<path style="fill:#030203; stroke:none;" d="M276 209L276 212L278 209L276 209z"/>
<path style="fill:#4675bf; stroke:none;" d="M393.333 209.667L393.667 210.333L393.333 209.667z"/>
<path style="fill:#c655b4; stroke:none;" d="M294 236L297 235C298.345 240.885 298.668 248.491 306 244L302 252L333 234L333 233L324 229L332 227L325 211C313.272 213.513 296.844 223.641 294 236z"/>
<path style="fill:#4675bf; stroke:none;" d="M394.333 211.667L394.667 212.333L394.333 211.667M273 212L273 214L275 212L273 212M368 213L369 214L368 213M395 213C395.877 220.099 394.797 223.474 389 228L389 229C395.925 226.624 399.381 219.413 395 213M266.333 214.667L266.667 215.333L266.333 214.667M313 214L314 215L313 214M302 252L306 244C298.506 247.52 298.881 240.932 297 235L294 236L297 228C280.533 241.609 280.024 272.199 291 289C325.17 274.276 357.307 249.467 389 230L381.839 230.008L366.981 214.658L347 224.656L302 252M273.667 215.333L274.333 215.667L273.667 215.333M312 215L306 220L312 215z"/>
<path style="fill:#baa3c7; stroke:none;" d="M261.333 217.667L261.667 218.333L261.333 217.667z"/>
<path style="fill:#4675bf; stroke:none;" d="M265 217L266 218L265 217z"/>
<path style="fill:#baa3c7; stroke:none;" d="M91 220L92 221L91 220M260.333 220.667L260.667 221.333L260.333 220.667z"/>
<path style="fill:#4675bf; stroke:none;" d="M302 223L306 220L302 223M267 221L268 222L267 221z"/>
<path style="fill:#c655b4; stroke:none;" d="M336.667 221.333L337.333 221.667L336.667 221.333z"/>
<path style="fill:#baa3c7; stroke:none;" d="M259 223L259 226L260 226L259 223z"/>
<path style="fill:#4675bf; stroke:none;" d="M301 223L302 224L301 223M300 224L301 225L300 224M299 225L297 228L299 225M93 226L92 228L94 228L93 226z"/>
<path style="fill:#baa3c7; stroke:none;" d="M258 228L259 229L258 228z"/>
<path style="fill:#4675bf; stroke:none;" d="M91 229L92 230L91 229z"/>
<path style="fill:#c655b4; stroke:none;" d="M334 229L337 231L334 229z"/>
<path style="fill:#baa3c7; stroke:none;" d="M205 237C201.794 254.26 202.771 271.316 208.333 288C210.441 294.322 212.908 302.568 219 306L228 297C226.39 291.725 228.041 281.793 236.001 283.672C247.529 286.393 256.765 297.168 269 300L269 299C248.72 292.139 231.339 278.497 219.036 261C213.816 253.576 210.978 243.62 205 237z"/>
<path style="fill:#d13f4b; stroke:none;" d="M36 240L36 243L37 243L36 240M37 243L37 246L38 246L37 243z"/>
<path style="fill:#4675bf; stroke:none;" d="M203 243L203 248L204 248L203 243z"/>
<path style="fill:#d13f4b; stroke:none;" d="M38.3333 246.667L38.6667 247.333L38.3333 246.667M35 247C29.7487 268.316 33 293.137 33 315L34 315L34 300L35 300C35.8719 305.073 41.1627 308.288 46 309L47 310L46 312L57 317C54.6886 330.278 73.4737 332.837 67 344C78.0011 336.086 91.6578 309.972 83.9722 296.105C80.6804 290.166 70.2056 286.162 65 281.7C54.3394 272.562 45.4096 260.99 40 248L38 250L35 247z"/>
<path style="fill:#4675bf; stroke:none;" d="M305 249L306 250L305 249z"/>
<path style="fill:#030203; stroke:none;" d="M39 251L40 252L39 251z"/>
<path style="fill:#c655b4; stroke:none;" d="M42 253L43 254L42 253M43 255L44 256L43 255M44 257L45 258L44 257M45 258L46 259L45 258M46 260L47 261L46 260M47 261L49 264L47 261z"/>
<path style="fill:#baa3c7; stroke:none;" d="M48 262L49 263L48 262M49.3333 263.667L49.6667 264.333L49.3333 263.667M50 265L65 281L50 265z"/>
<path style="fill:#c655b4; stroke:none;" d="M203 265L204 266L203 265M50 266L51 267L50 266z"/>
<path style="fill:#4675bf; stroke:none;" d="M203 266L203 270L204 270L203 266z"/>
<path style="fill:#c655b4; stroke:none;" d="M51 267L52 268L51 267M53 270L54 271L53 270M54 271L55 272L54 271M55 272L56 273L55 272M56 273L57 274L56 273M204 273L205 274L204 273z"/>
<path style="fill:#4675bf; stroke:none;" d="M204.333 274.667L204.667 275.333L204.333 274.667z"/>
<path style="fill:#c655b4; stroke:none;" d="M59 276L60 277L59 276M60 277L61 278L60 277M61 278L62 279L61 278M205 278L206 279L205 278M62 279L63 280L62 279z"/>
<path style="fill:#4675bf; stroke:none;" d="M205.333 279.667L205.667 280.333L205.333 279.667z"/>
<path style="fill:#c655b4; stroke:none;" d="M63 280L64 281L63 280M64 281L65 282L64 281M233 281L234 282L233 281M65 282L66 283L65 282M206.333 282.667L206.667 283.333L206.333 282.667M228 297L219 306L214 300L213 300C215.747 306.376 219.723 313.647 226 317L225 313L228 314C229.723 310.904 232.709 307.402 233.605 304C235.205 297.922 231.689 294.516 239 291L239 290L237 288L246 290C237.9 281.161 221.851 282.305 228 297M67 283L68 284L67 283M68 284L69 285L68 284z"/>
<path style="fill:#4675bf; stroke:none;" d="M206 284L207 285L206 284z"/>
<path style="fill:#c655b4; stroke:none;" d="M69 285L70 286L69 285M207.333 285.667L207.667 286.333L207.333 285.667M71 286L72 287L71 286z"/>
<path style="fill:#030203; stroke:none;" d="M246 286L247 287L246 286z"/>
<path style="fill:#c655b4; stroke:none;" d="M72 287L73 288L72 287z"/>
<path style="fill:#4675bf; stroke:none;" d="M207 287L208 288L207 287z"/>
<path style="fill:#d13f4b; stroke:none;" d="M237 288L239 290L239 291C228.115 294.149 237.336 309.844 225 313L226 317L220 312C224.857 324.625 240.152 333.696 251.985 338.921C257.854 341.513 265.881 343.038 270 348L273 347L272 351C300.064 365.729 353.277 356.36 372 330L366 334L355 319L356 315L343 324L331 301L322 307L328 299C311.752 310.214 282.773 306.441 265 299.139C256.196 295.522 246.597 287.722 237 288M348 287L348 288L354 288L348 287z"/>
<path style="fill:#c655b4; stroke:none;" d="M73 288L74 289L73 288M208.333 288.667L208.667 289.333L208.333 288.667z"/>
<path style="fill:#d13f4b; stroke:none;" d="M343 288L343 289L346 289L343 288z"/>
<path style="fill:#c655b4; stroke:none;" d="M322 307L331 301C330.68 308.199 338.959 318.049 343 324L356 315L355 319L366 334C382.773 324.072 379.342 297.634 362 290.272C345.527 283.278 331.171 293.826 322 307z"/>
<path style="fill:#d13f4b; stroke:none;" d="M356.667 288.333L357.333 288.667L356.667 288.333z"/>
<path style="fill:#c655b4; stroke:none;" d="M75 289L76 290L75 289z"/>
<path style="fill:#d13f4b; stroke:none;" d="M341 289L342 290L341 289M360 289L361 290L360 289z"/>
<path style="fill:#c655b4; stroke:none;" d="M76 290L77 291L76 290z"/>
<path style="fill:#4675bf; stroke:none;" d="M208 290L209 291L208 290z"/>
<path style="fill:#c655b4; stroke:none;" d="M247 290L248 291L247 290z"/>
<path style="fill:#d13f4b; stroke:none;" d="M339 290L340 291L339 290M362 290L363 291L362 290z"/>
<path style="fill:#c655b4; stroke:none;" d="M209 291L210 292L209 291M248.667 291.333L249.333 291.667L248.667 291.333z"/>
<path style="fill:#d13f4b; stroke:none;" d="M337 291L338 292L337 291M209 292L210 293L209 292z"/>
<path style="fill:#c655b4; stroke:none;" d="M250 292L251 293L250 292z"/>
<path style="fill:#d13f4b; stroke:none;" d="M335 292L336 293L335 292M366 292L367 293L366 292z"/>
<path style="fill:#c655b4; stroke:none;" d="M252 293L253 294L252 293z"/>
<path style="fill:#d13f4b; stroke:none;" d="M334 293L335 294L334 293M367 293L368 294L367 293z"/>
<path style="fill:#c655b4; stroke:none;" d="M210 294L211 295L210 294M254 294L255 295L254 294z"/>
<path style="fill:#d13f4b; stroke:none;" d="M333 294L334 295L333 294M368 294L369 295L368 294z"/>
<path style="fill:#4675bf; stroke:none;" d="M210 295L211 296L210 295z"/>
<path style="fill:#c655b4; stroke:none;" d="M255.667 295.333L256.333 295.667L255.667 295.333M211 296L212 297L211 296M258 296L259 297L258 296z"/>
<path style="fill:#d13f4b; stroke:none;" d="M211 297L212 298L211 297z"/>
<path style="fill:#030203; stroke:none;" d="M266 297L267 298L266 297z"/>
<path style="fill:#c655b4; stroke:none;" d="M212 298L213 299L212 298M263 298L264 299L263 298z"/>
<path style="fill:#d13f4b; stroke:none;" d="M372 298L373 299L372 298M212 299L213 300L212 299z"/>
<path style="fill:#c655b4; stroke:none;" d="M265.667 299.333L266.333 299.667L265.667 299.333M34 300C34 315.28 39.8106 315.406 49.8519 325.325C54.9682 330.379 55.0301 335.709 63 338L62 340L67 341L64 346C78.3726 335.507 55.7918 330.486 57 317L46 312L46 309L34 300M268 300L268 301L271 301L268 300z"/>
<path style="fill:#d13f4b; stroke:none;" d="M373 300L374 301L373 300M213 301L214 302L213 301z"/>
<path style="fill:#c655b4; stroke:none;" d="M271 301L271 302L274 302L271 301z"/>
<path style="fill:#d13f4b; stroke:none;" d="M374 301L375 302L374 301z"/>
<path style="fill:#c655b4; stroke:none;" d="M274 302L274 303L278 303L274 302z"/>
<path style="fill:#d13f4b; stroke:none;" d="M214 303L215 304L214 303z"/>
<path style="fill:#c655b4; stroke:none;" d="M279 303L279 304L282 304L279 303M217 304L218 305L217 304M285 304L285 305L288 305L285 304M329 304L331 306L329 304z"/>
<path style="fill:#d13f4b; stroke:none;" d="M375 304L376 305L375 304M215 305L216 306L215 305z"/>
<path style="fill:#c655b4; stroke:none;" d="M236 305L235 306L243 316C241.954 311.016 240.756 307.346 236 305z"/>
<path style="fill:#030203; stroke:none;" d="M319.667 305.333L320.333 305.667L319.667 305.333z"/>
<path style="fill:#d13f4b; stroke:none;" d="M216.333 306.667L216.667 307.333L216.333 306.667z"/>
<path style="fill:#030203; stroke:none;" d="M314 307L308 318L306 316L300 324C307.653 320.209 314.691 314.436 319 307L314 307z"/>
<path style="fill:#c655b4; stroke:none;" d="M321 307L319 311L321 307z"/>
<path style="fill:#d13f4b; stroke:none;" d="M376 307L377 308L376 307M217 308L218 309L217 308z"/>
<path style="fill:#c655b4; stroke:none;" d="M232 309L233 310L232 309z"/>
<path style="fill:#d13f4b; stroke:none;" d="M218 310L219 311L218 310M219 311L220 312L219 311M227 311L228 312L227 311z"/>
<path style="fill:#c655b4; stroke:none;" d="M318 311L319 312L318 311z"/>
<path style="fill:#baa3c7; stroke:none;" d="M34 312L33 356C45.1889 355.966 60.3899 352.168 67 341L62 340L63 338L49.8519 324.515L34 312z"/>
<path style="fill:#c655b4; stroke:none;" d="M317 312L318 313L317 312M316 313L317 314L316 313M336 313L338 315L336 313M315 314L316 315L315 314M33 315L33 337L34 337L33 315M314 315L315 316L314 315M313 316L314 317L313 316z"/>
<path style="fill:#d13f4b; stroke:none;" d="M310 317L309 319L310 317z"/>
<path style="fill:#c655b4; stroke:none;" d="M309 320L313 317L309 320z"/>
<path style="fill:#d13f4b; stroke:none;" d="M376.333 319.667L376.667 320.333L376.333 319.667z"/>
<path style="fill:#c655b4; stroke:none;" d="M308 320L309 321L308 320M307 321L308 322L307 321M304 324L307 322L304 324z"/>
<path style="fill:#d13f4b; stroke:none;" d="M375.333 322.667L375.667 323.333L375.333 322.667z"/>
<path style="fill:#030203; stroke:none;" d="M297.667 324.333L298.333 324.667L297.667 324.333z"/>
<path style="fill:#c655b4; stroke:none;" d="M291 330L291 331L304 325L291 330z"/>
<path style="fill:#d13f4b; stroke:none;" d="M374 325L375 326L374 325z"/>
<path style="fill:#030203; stroke:none;" d="M295.667 326.333L296.333 326.667L295.667 326.333z"/>
<path style="fill:#d13f4b; stroke:none;" d="M373.333 326.667L373.667 327.333L373.333 326.667M372 328L373 329L372 328z"/>
<path style="fill:#c655b4; stroke:none;" d="M362 329L363 330L362 329M288 331L288 332L291 332L288 331M283 332L283 333L287 333L283 332M280 333L281 334L280 333M273 334L273 335L276 335L273 334z"/>
<path style="fill:#d13f4b; stroke:none;" d="M258 345L259 346L258 345M63 346L64 347L63 346M266 346L267 347L266 346z"/>
<path style="fill:#c655b4; stroke:none;" d="M61 347L62 348L61 347z"/>
<path style="fill:#d13f4b; stroke:none;" d="M62 347L63 348L62 347z"/>
<path style="fill:#c655b4; stroke:none;" d="M59 348L58 350L59 348z"/>
<path style="fill:#d13f4b; stroke:none;" d="M60 348L61 349L60 348M267 348L268 349L267 348z"/>
<path style="fill:#4675bf; stroke:none;" d="M59 349L60 350L59 349z"/>
<path style="fill:#c655b4; stroke:none;" d="M56 350L57 351L56 350z"/>
<path style="fill:#4675bf; stroke:none;" d="M57 350L58 351L57 350z"/>
<path style="fill:#c655b4; stroke:none;" d="M54 351L55 352L54 351z"/>
<path style="fill:#4675bf; stroke:none;" d="M55 351L56 352L55 351z"/>
<path style="fill:#c655b4; stroke:none;" d="M52 352L53 353L52 352z"/>
<path style="fill:#4675bf; stroke:none;" d="M53 352L54 353L53 352M32 353L33 354L32 353z"/>
<path style="fill:#c655b4; stroke:none;" d="M49 353L50 354L49 353z"/>
<path style="fill:#4675bf; stroke:none;" d="M50 353L51 354L50 353z"/>
<path style="fill:#c655b4; stroke:none;" d="M46 354L47 355L46 354z"/>
<path style="fill:#4675bf; stroke:none;" d="M47 354L48 355L47 354z"/>
<path style="fill:#c655b4; stroke:none;" d="M41 355L42 356L41 355z"/>
<path style="fill:#4675bf; stroke:none;" d="M42 355L42 356L45 356L42 355M33 356L33 357L39 357L33 356z"/>
</svg>
