<?xml version="1.0" standalone="yes"?>
<svg xmlns="http://www.w3.org/2000/svg" width="554" height="438">
<path style="fill:#020203; stroke:none;" d="M0 0L0 438L554 438L554 0L0 0z"/>
<path style="fill:#4675bf; stroke:none;" d="M348 133L348 134L353 134L348 133z"/>
<path style="fill:#bba4c7; stroke:none;" d="M301 159L313 167C333.033 152.901 349.668 136.218 376 136C370.741 132.01 360.368 132.532 354 133.285C336.677 135.336 309.126 141.32 301 159z"/>
<path style="fill:#4675bf; stroke:none;" d="M367 133L367 134L371 134L367 133M203 134L203 135L207 135L203 134z"/>
<path style="fill:#bba4c7; stroke:none;" d="M148 167L149 169L151 167L162 175C184.285 157.965 200.127 137.256 231 137C224.432 132.512 212.551 133.653 205 134.729C183.582 137.782 159.288 147.242 148 167z"/>
<path style="fill:#4675bf; stroke:none;" d="M221 134L221 135L225 135L221 134M342 134L342 135L345 135L342 134M375 134C375 136.634 361.493 137.793 358 138.667C340.639 143.007 325.486 154.514 313 167C310.798 163.118 305.454 159.453 301 159L303 154C287.233 165.107 277.16 186.352 274 205L275 205L275 202L276 202C278.347 215.164 288.728 227.899 298.001 236.985C301.937 240.842 306.351 245.497 312 246C314.792 250.92 322.421 254.655 328 254C332.105 259.997 344.242 260.71 351 261L351 260C333.454 258.458 319.277 240.947 318.09 224C317.475 215.23 320.521 206.576 319 198L320 198L320 200L321 200L326 183L325 183L325 185L324 185L328 175L332 177L332 178L328 177L329 181L339 175L338 178L336 177L334 182L336 181L335 184C348.124 179.231 359.073 174.085 373 180L369 182L369 183L393 168L393 167L384 163L384 161C388.738 158.106 394.841 147.374 393 142L402 145L402 144L375 134M197 135L197 136L200 136L197 135M229.667 135.333L230.333 135.667L229.667 135.333M338.667 135.333L339.333 135.667L338.667 135.333M193.667 136.333L194.333 136.667L193.667 136.333M162 175C161.484 170.72 152.797 167.328 149 169L148 167L150 163C140.185 170.529 128.974 190.133 130.199 203C131.889 220.741 155.438 246.713 172 252C172 232.129 169.397 209.225 179 191L178 195L205 179.464L253 179L253 178L244 180C242.516 173.844 243.239 168.943 250 167C249.193 163.451 248.777 161.096 252 159L252 158C237.808 158 224.639 158.639 211 163L209 162L214 150L209 148L209 147L213 147C213 142.781 229.744 137.784 234 137C228.369 135.268 219.647 137.668 214 139.156C192.311 144.87 176.931 159.107 162 175M335 136L336 137L335 136M189.667 137.333L190.333 137.667L189.667 137.333z"/>
<path style="fill:#c655b5; stroke:none;" d="M211 147L214 150L209 162L211 163L232 158L230 154L230 153C234.828 151.966 234.392 140.945 233 137L211 147z"/>
<path style="fill:#bba4c7; stroke:none;" d="M233 137C233.8 141.842 234.486 150.093 230 153L230 154C235.838 159.796 243.834 158 252 158L252 159L249 159L250 167C242.726 168.149 241.816 173.857 244 180C258.13 178.096 263.701 168.304 274 160C267.538 146.74 246.467 139.787 233 137z"/>
<path style="fill:#c655b5; stroke:none;" d="M235.667 137.333L236.333 137.667L235.667 137.333z"/>
<path style="fill:#4675bf; stroke:none;" d="M237 137L238 138L237 137M331.667 137.333L332.333 137.667L331.667 137.333M186.667 138.333L187.333 138.667L186.667 138.333z"/>
<path style="fill:#c655b5; stroke:none;" d="M239 138L240 139L239 138z"/>
<path style="fill:#4675bf; stroke:none;" d="M240.667 138.333L241.333 138.667L240.667 138.333M328.667 138.333L329.333 138.667L328.667 138.333M183.667 139.333L184.333 139.667L183.667 139.333z"/>
<path style="fill:#c655b5; stroke:none;" d="M242 139L243 140L242 139z"/>
<path style="fill:#4675bf; stroke:none;" d="M243.667 139.333L244.333 139.667L243.667 139.333M326.667 139.333L327.333 139.667L326.667 139.333M180.667 140.333L181.333 140.667L180.667 140.333M245.667 140.333L246.333 140.667L245.667 140.333M324 140L325 141L324 140M178.667 141.333L179.333 141.667L178.667 141.333M248.667 141.333L249.333 141.667L248.667 141.333M322 141L323 142L322 141M176 142L177 143L176 142M251 142L252 143L251 142M320 142L321 143L320 142z"/>
<path style="fill:#c655b5; stroke:none;" d="M393 142L395 144L384 161L384 163C394.813 168.016 407.27 162.328 415 153L393 142z"/>
<path style="fill:#4675bf; stroke:none;" d="M174 143L175 144L174 143z"/>
<path style="fill:#bba4c7; stroke:none;" d="M216 143L217 144L216 143z"/>
<path style="fill:#4675bf; stroke:none;" d="M253 143L254 144L253 143M318 143L319 144L318 143z"/>
<path style="fill:#bba4c7; stroke:none;" d="M359 143L360 144L359 143z"/>
<path style="fill:#4675bf; stroke:none;" d="M173 144L174 145L173 144z"/>
<path style="fill:#bba4c7; stroke:none;" d="M215 144L216 145L215 144z"/>
<path style="fill:#4675bf; stroke:none;" d="M254 144L255 145L254 144M316 144L317 145L316 144M171 145L172 146L171 145z"/>
<path style="fill:#bba4c7; stroke:none;" d="M212.667 145.333L213.333 145.667L212.667 145.333z"/>
<path style="fill:#4675bf; stroke:none;" d="M256 145L257 146L256 145M314.667 145.333L315.333 145.667L314.667 145.333M403 145L404 146L403 145M169 146L170 147L169 146z"/>
<path style="fill:#bba4c7; stroke:none;" d="M211 146L212 147L211 146z"/>
<path style="fill:#4675bf; stroke:none;" d="M258 146L259 147L258 146M313 146L314 147L313 146z"/>
<path style="fill:#c655b5; stroke:none;" d="M391 146L392 147L391 146z"/>
<path style="fill:#4675bf; stroke:none;" d="M405 146L406 147L405 146M167.667 147.333L168.333 147.667L167.667 147.333z"/>
<path style="fill:#bba4c7; stroke:none;" d="M209.667 147.333L210.333 147.667L209.667 147.333z"/>
<path style="fill:#4675bf; stroke:none;" d="M260 147L261 148L260 147M311.667 147.333L312.333 147.667L311.667 147.333z"/>
<path style="fill:#bba4c7; stroke:none;" d="M353 147L343 153L342 153L329 175L330 175L344.001 157.001L353 147z"/>
<path style="fill:#4675bf; stroke:none;" d="M406 147L407 148L406 147M166 148L167 149L166 148z"/>
<path style="fill:#bba4c7; stroke:none;" d="M178 187L179 187C185.877 170.483 198.187 161.411 209 148C194.758 154.03 181.53 172.137 178 187z"/>
<path style="fill:#4675bf; stroke:none;" d="M214 148L215 149L214 148M261 148L262 149L261 148M310 148L311 149L310 148M408 148L409 149L408 148M164 149L165 150L164 149M263 149L264 150L263 149M308.667 149.333L309.333 149.667L308.667 149.333M409 149L410 150L409 149M163 150L164 151L163 150z"/>
<path style="fill:#c655b5; stroke:none;" d="M209 150L210 151L209 150z"/>
<path style="fill:#4675bf; stroke:none;" d="M264 150L265 151L264 150M307 150L308 151L307 150M411 150L412 151L411 150M162 151L163 152L162 151M306 151L307 152L306 151M412 151L413 152L412 151M267 152L268 153L267 152M305 152L306 153L305 152M413 152L414 153L413 152M159 153L160 154L159 153M268 153L269 154L268 153M304 153L305 154L304 153M158 154L159 155L158 154M269 154L270 155L269 154z"/>
<path style="fill:#bba4c7; stroke:none;" d="M366 186L377 180L384 194L377 195L382 200L386 196L413.957 184.569L421.154 191.576L425 200C429.589 197.83 437.303 194.461 438.523 188.985C440.456 180.308 424.498 156.555 416 155.02C411.964 154.291 406.369 158.969 403 160.861C391.152 167.514 374.822 175.604 366 186z"/>
<path style="fill:#4675bf; stroke:none;" d="M416 154L417 155L416 154M157 155L158 156L157 155M156 156L157 157L156 156M272 156L273 157L272 156M155 157L156 158L155 157z"/>
<path style="fill:#c655b5; stroke:none;" d="M208 157L209 158L208 157z"/>
<path style="fill:#4675bf; stroke:none;" d="M273 157L274 158L273 157z"/>
<path style="fill:#c655b5; stroke:none;" d="M386 157L387 158L386 157z"/>
<path style="fill:#4675bf; stroke:none;" d="M154 158L155 159L154 158M274.333 158.667L274.667 159.333L274.333 158.667z"/>
<path style="fill:#bba4c7; stroke:none;" d="M191 159L192 160L191 159M298 159L297 161L298 159z"/>
<path style="fill:#4675bf; stroke:none;" d="M152 160L153 161L152 160M271 163L274 160L271 163M151 161L152 162L151 161M268 161L267 164L268 161M150 162L151 163L150 162M424 162L425 163L424 162M270 163L271 164L270 163M425 163L426 164L425 163M269 164L270 165L269 164M426 164L427 165L426 164M268 165L269 166L268 165M427 165L428 166L427 165M150 166L151 167L150 166M267 166L268 167L267 166M335 166L334 168L335 166z"/>
<path style="fill:#020203; stroke:none;" d="M336 166L337 167L336 166z"/>
<path style="fill:#4675bf; stroke:none;" d="M266 167L267 168L266 167z"/>
<path style="fill:#020203; stroke:none;" d="M335 167L336 171L335 167z"/>
<path style="fill:#4675bf; stroke:none;" d="M428 167L429 168L428 167z"/>
<path style="fill:#bba4c7; stroke:none;" d="M146 168L145 170L146 168z"/>
<path style="fill:#4675bf; stroke:none;" d="M265 168L266 169L265 168M429 168L430 169L429 168M264 169L265 170L264 169M335 169L336 170L335 169M263 170L264 171L263 170M247 171L245 175L249 171L247 171M262 171L261 173L263 173L262 171M431 171L432 172L431 171M331 172L330 175L331 175L331 172z"/>
<path style="fill:#020203; stroke:none;" d="M332 172L332 177L333 177L332 172M336 172L337 173L336 172z"/>
<path style="fill:#4675bf; stroke:none;" d="M432 172L433 173L432 172M260 173L261 174L260 173M259 174L260 175L259 174z"/>
<path style="fill:#020203; stroke:none;" d="M334 174L335 175L334 174z"/>
<path style="fill:#4675bf; stroke:none;" d="M433 174L434 175L433 174M257 175L258 176L257 175z"/>
<path style="fill:#bba4c7; stroke:none;" d="M328 175L324 185L325 185L328 175z"/>
<path style="fill:#020203; stroke:none;" d="M330 175L331 176L330 175z"/>
<path style="fill:#4675bf; stroke:none;" d="M256 176L257 177L256 176z"/>
<path style="fill:#020203; stroke:none;" d="M329 176L332 178L332 177L329 176z"/>
<path style="fill:#4675bf; stroke:none;" d="M434 176L435 177L434 176M254 177L255 178L254 177M435.333 177.667L435.667 178.333L435.333 177.667M333 178L334 179L333 178z"/>
<path style="fill:#c655b5; stroke:none;" d="M379 178L378 180L379 178z"/>
<path style="fill:#4675bf; stroke:none;" d="M327 179L328 180L327 179z"/>
<path style="fill:#020203; stroke:none;" d="M336.333 179.667L336.667 180.333L336.333 179.667z"/>
<path style="fill:#4675bf; stroke:none;" d="M436.333 179.667L436.667 180.333L436.333 179.667z"/>
<path style="fill:#c655b5; stroke:none;" d="M351 202C354.8 203.203 355.202 206.317 355 210L362 209L358 216C365.946 212.669 378.691 205.577 383 198L377 195L384 194L377 180C366.736 183.736 354.269 190.993 351 202z"/>
<path style="fill:#4675bf; stroke:none;" d="M326 181L327 182L326 181M437.333 181.667L437.667 182.333L437.333 181.667M329 182L330 183L329 182M333 182L334 183L333 182M414 182L415 183L414 182M327.333 183.667L327.667 184.333L327.333 183.667M358 216L362 209L355 210C355.673 206.067 355.249 202.863 351 202L353 196C342.935 204.34 340.112 221.756 342.888 234C343.697 237.569 345.146 246.311 350.105 246.183C356.853 246.008 366.324 237.206 372 233.8C390.001 222.999 407.471 210.862 426 201C425.308 195.3 418.946 183.126 411.996 183.867C406.276 184.476 399.799 190.016 395 192.938C382.598 200.49 370.463 208.615 358 216M333.667 184.333L334.333 184.667L333.667 184.333M366 184L367 185L366 184M438 184L439 185L438 184z"/>
<path style="fill:#bba4c7; stroke:none;" d="M323 185L322 190L323 190L323 185z"/>
<path style="fill:#4675bf; stroke:none;" d="M326.333 185.667L326.667 186.333L326.333 185.667M332 185L333 186L332 185M363 187L366 185L363 187M331 186L332 187L331 186M360 189L363 187L360 189z"/>
<path style="fill:#bba4c7; stroke:none;" d="M177.333 188.667L177.667 189.333L177.333 188.667z"/>
<path style="fill:#020203; stroke:none;" d="M181 188L182 189L181 188z"/>
<path style="fill:#4675bf; stroke:none;" d="M328 189L329 190L328 189M359 189L360 190L359 189z"/>
<path style="fill:#c655b5; stroke:none;" d="M387.667 189.333L388.333 189.667L387.667 189.333z"/>
<path style="fill:#4675bf; stroke:none;" d="M354 195L359 190L354 195M438 190L439 191L438 190z"/>
<path style="fill:#bba4c7; stroke:none;" d="M176.333 191.667L176.667 192.333L176.333 191.667z"/>
<path style="fill:#020203; stroke:none;" d="M181 191L182 192L181 191z"/>
<path style="fill:#bba4c7; stroke:none;" d="M321 191L320 197L321 197L321 191z"/>
<path style="fill:#4675bf; stroke:none;" d="M326 191L327 192L326 191z"/>
<path style="fill:#c655b5; stroke:none;" d="M397 191L398 192L397 191z"/>
<path style="fill:#4675bf; stroke:none;" d="M437 192L438 193L437 192M436 193L437 194L436 193z"/>
<path style="fill:#bba4c7; stroke:none;" d="M175.333 194.667L175.667 195.333L175.333 194.667z"/>
<path style="fill:#4675bf; stroke:none;" d="M434.667 194.333L435.333 194.667L434.667 194.333M353 195L354 196L353 195z"/>
<path style="fill:#c655b5; stroke:none;" d="M385 195L386 196L385 195z"/>
<path style="fill:#4675bf; stroke:none;" d="M432.667 195.333L433.333 195.667L432.667 195.333M177 196L178 197L177 196z"/>
<path style="fill:#c655b5; stroke:none;" d="M386 196L386 198L388 196L386 196z"/>
<path style="fill:#4675bf; stroke:none;" d="M431 196L432 197L431 196M429.667 197.333L430.333 197.667L429.667 197.333z"/>
<path style="fill:#bba4c7; stroke:none;" d="M319 198L319 201L320 201L319 198M422 198L423 199L422 198z"/>
<path style="fill:#4675bf; stroke:none;" d="M428 198L429 199L428 198z"/>
<path style="fill:#c655b5; stroke:none;" d="M384 199L385 200L384 199z"/>
<path style="fill:#4675bf; stroke:none;" d="M426 199L427 200L426 199z"/>
<path style="fill:#bba4c7; stroke:none;" d="M275 202C272.103 217.596 270.454 252.679 287 262L286 259C292.304 257.224 294.457 252.991 292 247L296 246C296.654 243.171 299.245 241.296 302.259 242.722C311.794 247.232 319.313 254.615 330 257L330 256C301.468 246.285 290.563 225.135 275 202z"/>
<path style="fill:#d23e4b; stroke:none;" d="M130 205L130 208L131 208L130 205M131.333 208.667L131.667 209.333L131.333 208.667M129 209L130 210L129 209z"/>
<path style="fill:#4675bf; stroke:none;" d="M273 209L273 213L274 213L273 209z"/>
<path style="fill:#d23e4b; stroke:none;" d="M129 211C126.132 223.046 127.711 237.64 128.015 250C128.147 255.385 128.634 260.991 135 261L137 265L140 264L146 268L146 269L143 269L143 270L148 271C148.008 281.044 161.237 285.409 157 294C165.783 287.517 178.639 263.748 170.972 252.634C167.861 248.124 160.223 245.314 156 241.7C146.242 233.348 137.95 222.886 133 211L131 213L129 211z"/>
<path style="fill:#020203; stroke:none;" d="M132 213L133 214L132 213z"/>
<path style="fill:#c655b5; stroke:none;" d="M134 214L135 215L134 214z"/>
<path style="fill:#020203; stroke:none;" d="M133 215L134 216L133 215z"/>
<path style="fill:#c655b5; stroke:none;" d="M135 216L136 217L135 216M360 216L361 217L360 216z"/>
<path style="fill:#bba4c7; stroke:none;" d="M136 217L137 218L136 217z"/>
<path style="fill:#c655b5; stroke:none;" d="M136 218L137 219L136 218z"/>
<path style="fill:#bba4c7; stroke:none;" d="M137 219L138 220L137 219z"/>
<path style="fill:#c655b5; stroke:none;" d="M137 220L138 221L137 220M138 221L139 222L138 221z"/>
<path style="fill:#bba4c7; stroke:none;" d="M139 222L140 223L139 222z"/>
<path style="fill:#c655b5; stroke:none;" d="M139 223L140 224L139 223z"/>
<path style="fill:#bba4c7; stroke:none;" d="M140 224L141 225L140 224M141 225L143 229L144 229L141 225z"/>
<path style="fill:#c655b5; stroke:none;" d="M141 226L142 227L141 226z"/>
<path style="fill:#4675bf; stroke:none;" d="M273 226L273 230L274 230L273 226z"/>
<path style="fill:#bba4c7; stroke:none;" d="M144 229L145 230L144 229M145 230L149 235L145 230z"/>
<path style="fill:#c655b5; stroke:none;" d="M145 231L146 232L145 231M274 234L275 235L274 234z"/>
<path style="fill:#bba4c7; stroke:none;" d="M149 235L150 236L149 235z"/>
<path style="fill:#4675bf; stroke:none;" d="M274.333 235.667L274.667 236.333L274.333 235.667z"/>
<path style="fill:#bba4c7; stroke:none;" d="M150 236L151 237L150 236M151 237L152 238L151 237M152 238L155 240L152 238z"/>
<path style="fill:#c655b5; stroke:none;" d="M275 239L276 240L275 239M154 240L155 241L154 240z"/>
<path style="fill:#4675bf; stroke:none;" d="M275 240L276 241L275 240z"/>
<path style="fill:#c655b5; stroke:none;" d="M298.667 240.333L299.333 240.667L298.667 240.333M155 241L156 242L155 241M296 246L292 247C293.704 252.99 291.595 256.38 286 259L287 262L284 261L291 272L294 272L293 269L304 249L304 248L302 247L305 246C302.747 241.749 297.193 240.299 296 246M156 242L157 243L156 242z"/>
<path style="fill:#bba4c7; stroke:none;" d="M157 242L158 243L157 242M158 243L159 244L158 243z"/>
<path style="fill:#c655b5; stroke:none;" d="M276 243L277 244L276 243M159 244L160 245L159 244z"/>
<path style="fill:#4675bf; stroke:none;" d="M276 244L277 245L276 244z"/>
<path style="fill:#c655b5; stroke:none;" d="M160 245L161 246L160 245z"/>
<path style="fill:#d23e4b; stroke:none;" d="M302 247L304 248L304 249C299.398 250.633 293.532 267.003 294 272L291 272C296.794 280.157 304.978 285.571 314 289.491C319.38 291.828 326.821 292.8 330 298L333 297L332 301C358.764 309.558 400.041 307.281 418 282L414 286L413 286L404 269C401.608 270.682 398.401 274.81 395.468 275.23C390.87 275.888 383.662 260.742 383 257L374 264L374 260C359.211 262.746 342.157 261.707 328 256.564C320.272 253.757 310.101 244.446 302 247z"/>
<path style="fill:#c655b5; stroke:none;" d="M306 245L307 246L306 245z"/>
<path style="fill:#020203; stroke:none;" d="M310 245L311 246L310 245z"/>
<path style="fill:#c655b5; stroke:none;" d="M162 246L163 247L162 246M277 246L278 247L277 246z"/>
<path style="fill:#020203; stroke:none;" d="M311 246L312 247L311 246M313.333 246.667L313.667 247.333L313.333 246.667z"/>
<path style="fill:#d23e4b; stroke:none;" d="M394 246L394 247L397 247L394 246z"/>
<path style="fill:#c655b5; stroke:none;" d="M374 264L383 257C382.837 261.254 390.033 275.577 395.105 275.654C398.549 275.707 401.812 271.179 404 269L413 286C438.332 267.726 406.873 232.285 383 253.185C379.399 256.338 376.024 259.66 374 264z"/>
<path style="fill:#d23e4b; stroke:none;" d="M404 246L405 247L404 246z"/>
<path style="fill:#c655b5; stroke:none;" d="M163 247L164 248L163 247z"/>
<path style="fill:#4675bf; stroke:none;" d="M277 247L278 248L277 247z"/>
<path style="fill:#c655b5; stroke:none;" d="M306 247L307 248L306 247M309 247L310 248L309 247z"/>
<path style="fill:#d23e4b; stroke:none;" d="M389 248L390 249L389 248z"/>
<path style="fill:#c655b5; stroke:none;" d="M166 249L167 250L166 249M278 249L279 250L278 249M314 250L315 251L314 250z"/>
<path style="fill:#d23e4b; stroke:none;" d="M386 250L387 251L386 250M413 250L414 251L413 250z"/>
<path style="fill:#c655b5; stroke:none;" d="M316 251L317 252L316 251z"/>
<path style="fill:#d23e4b; stroke:none;" d="M414 251L415 252L414 251z"/>
<path style="fill:#4675bf; stroke:none;" d="M279 252L280 253L279 252z"/>
<path style="fill:#c655b5; stroke:none;" d="M318 252L319 253L318 252M320 253L321 254L320 253z"/>
<path style="fill:#020203; stroke:none;" d="M325 253L326 254L325 253z"/>
<path style="fill:#bba4c7; stroke:none;" d="M415 253L416 254L415 253z"/>
<path style="fill:#d23e4b; stroke:none;" d="M280 254L281 255L280 254z"/>
<path style="fill:#c655b5; stroke:none;" d="M322 254L323 255L322 254z"/>
<path style="fill:#020203; stroke:none;" d="M327 254L328 255L327 254z"/>
<path style="fill:#d23e4b; stroke:none;" d="M383 254L382 256L383 254z"/>
<path style="fill:#c655b5; stroke:none;" d="M128 255C128 272.737 142.578 276.32 151 290L157 292L153 297C166.744 287.203 148.042 282.925 148 271L143 270L143 269L146 269L146 268L140 264L137 265L135 261L128 255z"/>
<path style="fill:#020203; stroke:none;" d="M330 255L331 256L330 255z"/>
<path style="fill:#4675bf; stroke:none;" d="M380 255L381 256L380 255z"/>
<path style="fill:#d23e4b; stroke:none;" d="M281 256L282 257L281 256z"/>
<path style="fill:#c655b5; stroke:none;" d="M327 256L328 257L327 256z"/>
<path style="fill:#d23e4b; stroke:none;" d="M379 256L380 257L379 256z"/>
<path style="fill:#c655b5; stroke:none;" d="M282 257L283 258L282 257M330 257L331 258L330 257z"/>
<path style="fill:#bba4c7; stroke:none;" d="M331.667 257.333L332.333 257.667L331.667 257.333z"/>
<path style="fill:#d23e4b; stroke:none;" d="M378 257L379 258L378 257M419 257L420 258L419 257M282 258L283 259L282 258z"/>
<path style="fill:#c655b5; stroke:none;" d="M334.667 258.333L335.333 258.667L334.667 258.333z"/>
<path style="fill:#d23e4b; stroke:none;" d="M377 258L378 259L377 258z"/>
<path style="fill:#bba4c7; stroke:none;" d="M418 258L419 259L418 258z"/>
<path style="fill:#c655b5; stroke:none;" d="M283 259L284 260L283 259M338.667 259.333L339.333 259.667L338.667 259.333z"/>
<path style="fill:#d23e4b; stroke:none;" d="M376 259L377 260L376 259M420 259L421 260L420 259M283 260L284 261L283 260z"/>
<path style="fill:#c655b5; stroke:none;" d="M285 260L286 261L285 260M343 260L343 261L346 261L343 260z"/>
<path style="fill:#d23e4b; stroke:none;" d="M375 260L376 261L375 260z"/>
<path style="fill:#c655b5; stroke:none;" d="M301 261L307 273C308.49 268.092 305.885 262.529 301 261z"/>
<path style="fill:#d23e4b; stroke:none;" d="M284 262L285 263L284 262z"/>
<path style="fill:#020203; stroke:none;" d="M368 265L369 265L371 263L368 265z"/>
<path style="fill:#d23e4b; stroke:none;" d="M421 262L422 263L421 262z"/>
<path style="fill:#020203; stroke:none;" d="M372 263L369 267C367.397 266.82 363.302 267.168 366 269L366 270L362 270L361 270L361 274L352 279L352 280C358.716 277.454 370.226 270.319 372 263z"/>
<path style="fill:#d23e4b; stroke:none;" d="M285 264L286 265L285 264z"/>
<path style="fill:#c655b5; stroke:none;" d="M298 264L299 265L298 264z"/>
<path style="fill:#d23e4b; stroke:none;" d="M372 264L360 276C364.598 273.615 370.737 269.208 372 264z"/>
<path style="fill:#c655b5; stroke:none;" d="M373 264L374 265L373 264M378 264L379 265L378 264z"/>
<path style="fill:#d23e4b; stroke:none;" d="M286 265L287 266L286 265z"/>
<path style="fill:#c655b5; stroke:none;" d="M372 265L369 269L372 265z"/>
<path style="fill:#bba4c7; stroke:none;" d="M128 266L128 305C138.69 304.155 150.452 301.077 157 292L151 290C148.969 280.473 134.615 273.128 128 266z"/>
<path style="fill:#d23e4b; stroke:none;" d="M287 266L288 267L287 266M292 267L291 270L292 267M288 268L289 269L288 268z"/>
<path style="fill:#c655b5; stroke:none;" d="M387 268L388 269L387 268z"/>
<path style="fill:#d23e4b; stroke:none;" d="M289 269L290 270L289 269z"/>
<path style="fill:#c655b5; stroke:none;" d="M368 269L369 270L368 269z"/>
<path style="fill:#d23e4b; stroke:none;" d="M290.333 270.667L290.667 271.333L290.333 270.667z"/>
<path style="fill:#c655b5; stroke:none;" d="M367 270L368 271L367 270M366 271L367 272L366 271M365 272L366 273L365 272M295 273L296 274L295 273M364 273L365 274L364 273M363 274L364 275L363 274z"/>
<path style="fill:#d23e4b; stroke:none;" d="M421 274L422 275L421 274z"/>
<path style="fill:#c655b5; stroke:none;" d="M361.667 275.333L362.333 275.667L361.667 275.333z"/>
<path style="fill:#d23e4b; stroke:none;" d="M358 276L357 278L358 276z"/>
<path style="fill:#c655b5; stroke:none;" d="M358 278L361 276L358 278z"/>
<path style="fill:#d23e4b; stroke:none;" d="M420 277L421 278L420 277z"/>
<path style="fill:#c655b5; stroke:none;" d="M299 278L300 279L299 278z"/>
<path style="fill:#d23e4b; stroke:none;" d="M355 278L354 280L355 278z"/>
<path style="fill:#c655b5; stroke:none;" d="M356 278L356 280L358 278L356 278z"/>
<path style="fill:#bba4c7; stroke:none;" d="M355 279L356 280L355 279z"/>
<path style="fill:#d23e4b; stroke:none;" d="M419 279L420 280L419 279z"/>
<path style="fill:#c655b5; stroke:none;" d="M303 280L304 281L303 280M353.667 280.333L354.333 280.667L353.667 280.333z"/>
<path style="fill:#020203; stroke:none;" d="M302 281L303 282L302 281z"/>
<path style="fill:#c655b5; stroke:none;" d="M351.667 281.333L352.333 281.667L351.667 281.333M409 281L410 282L409 281z"/>
<path style="fill:#020203; stroke:none;" d="M303 282L304 283L303 282z"/>
<path style="fill:#c655b5; stroke:none;" d="M348 282L348 283L351 283L348 282M346.667 283.333L347.333 283.667L346.667 283.333M342 284L342 285L345 285L342 284z"/>
<path style="fill:#4675bf; stroke:none;" d="M127 285L127 305L128 305L127 285z"/>
<path style="fill:#c655b5; stroke:none;" d="M318 285L319 286L318 285M321 286L321 287L341 286L321 286z"/>
<path style="fill:#020203; stroke:none;" d="M321.667 287.333L322.333 287.667L321.667 287.333z"/>
<path style="fill:#d23e4b; stroke:none;" d="M309 288L310 289L309 288M312 290L314 292L312 290M318 294L321 296L321 295L318 294M326 295L327 299L328 299L329 299L326 295M152 297L153 298L152 297M150 298L151 299L150 298z"/>
<path style="fill:#c655b5; stroke:none;" d="M148 299L149 300L148 299M146 300L147 301L146 300z"/>
<path style="fill:#d23e4b; stroke:none;" d="M144 301L145 302L144 301z"/>
<path style="fill:#c655b5; stroke:none;" d="M141 302L142 303L141 302z"/>
<path style="fill:#4675bf; stroke:none;" d="M142 302L143 303L142 302M138 303L139 304L138 303z"/>
<path style="fill:#c655b5; stroke:none;" d="M132.667 304.333L133.333 304.667L132.667 304.333z"/>
<path style="fill:#4675bf; stroke:none;" d="M134 304L135 305L134 304z"/>
</svg>
